<svg width="60" height="60" fill="none" xmlns="http://www.w3.org/2000/svg"><path d="M35.7422 30c0 3.1714-2.5708 5.7422-5.7422 5.7422S24.2578 33.1714 24.2578 30 26.8286 24.2578 30 24.2578 35.7422 26.8286 35.7422 30z" fill="#fff"/><path d="M43.4288 19.8405a5.3374 5.3374 0 00-1.2886-1.9807 5.3334 5.3334 0 00-1.9807-1.2886c-.607-.2358-1.5189-.5164-3.1984-.5928-1.8169-.0829-2.3616-.1007-6.9612-.1007-4.6001 0-5.1448.0174-6.9612.1002-1.6796.0769-2.5919.3575-3.1984.5933a5.3297 5.3297 0 00-1.9808 1.2886 5.3405 5.3405 0 00-1.289 1.9807c-.2358.607-.5164 1.5194-.5928 3.1989-.0829 1.8164-.1007 2.3611-.1007 6.9612 0 4.5996.0178 5.1444.1007 6.9612.0764 1.6796.357 2.5914.5928 3.1984a5.34 5.34 0 001.2886 1.9808 5.3346 5.3346 0 001.9807 1.2886c.607.2362 1.5193.5168 3.1989.5932 1.8164.0829 2.3607.1003 6.9607.1003 4.6005 0 5.1453-.0174 6.9612-.1003 1.6796-.0764 2.5919-.357 3.1989-.5932a5.7046 5.7046 0 003.2693-3.2694c.2358-.607.5164-1.5188.5933-3.1984.0828-1.8168.1002-2.3616.1002-6.9612 0-4.6001-.0174-5.1448-.1002-6.9612-.0765-1.6795-.3571-2.5919-.5933-3.1989zM29.9999 38.846c-4.8857 0-8.8463-3.9601-8.8463-8.8458 0-4.8858 3.9606-8.8459 8.8463-8.8459 4.8852 0 8.8458 3.9601 8.8458 8.8459 0 4.8857-3.9606 8.8458-8.8458 8.8458zm9.1955-15.9741c-1.1416 0-2.0672-.9256-2.0672-2.0673s.9256-2.0673 2.0672-2.0673c1.1417 0 2.0673.9256 2.0673 2.0673-.0005 1.1417-.9256 2.0673-2.0673 2.0673z" fill="#fff"/><path d="M30 0C13.434 0 0 13.434 0 30c0 16.566 13.434 30 30 30 16.566 0 30-13.434 30-30C60 13.434 46.566 0 30 0zm17.1227 37.1022c-.0834 1.8338-.375 3.0858-.8007 4.1817a8.808 8.808 0 01-5.0381 5.0381c-1.0955.4257-2.3479.7169-4.1812.8007-1.837.0837-2.4239.1039-7.1022.1039-4.6788 0-5.2652-.0202-7.1027-.1039-1.8333-.0838-3.0858-.375-4.1812-.8007a8.4402 8.4402 0 01-3.0515-1.9871 8.4446 8.4446 0 01-1.9867-3.051c-.4257-1.0955-.7173-2.3479-.8006-4.1812-.0847-1.8375-.1044-2.4244-.1044-7.1027s.0197-5.2652.1039-7.1022c.0834-1.8338.3745-3.0858.8002-4.1817a8.4403 8.4403 0 011.9876-3.051 8.439 8.439 0 013.051-1.9871c1.0959-.4257 2.3479-.7169 4.1817-.8007 1.837-.0837 2.4239-.1039 7.1022-.1039s5.2652.0202 7.1022.1044c1.8338.0833 3.0858.3745 4.1817.7997a8.4453 8.4453 0 013.0514 1.9876 8.4402 8.4402 0 011.9867 3.051c.4262 1.0959.7173 2.3479.8011 4.1817.0838 1.837.1035 2.4239.1035 7.1022s-.0197 5.2652-.1039 7.1022z" fill="#fff"/></svg>