<svg width="60" height="60" fill="none" xmlns="http://www.w3.org/2000/svg"><path d="M30 0C13.434 0 0 13.434 0 30c0 16.566 13.434 30 30 30 16.566 0 30-13.434 30-30C60 13.434 46.566 0 30 0zm-8.7177 45.3516H13.976V23.3702h7.3063v21.9814zm-3.6529-24.9829h-.0476c-2.4518 0-4.0375-1.6878-4.0375-3.7972 0-2.157 1.6342-3.7981 4.1336-3.7981 2.4994 0 4.0375 1.6411 4.0851 3.7981 0 2.1094-1.5857 3.7972-4.1336 3.7972zm29.9982 24.9829h-7.3055V33.5921c0-2.9554-1.0579-4.9709-3.7015-4.9709-2.0182 0-3.2203 1.3596-3.7486 2.672-.1932.4696-.2403 1.1261-.2403 1.783v12.2754h-7.3059s.0956-19.9192 0-21.9814h7.3059v3.1123c.9709-1.4978 2.7081-3.6282 6.5845-3.6282 4.8069 0 8.4114 3.1416 8.4114 9.8932v12.6041z" fill="#fff"/></svg>