<svg width="175" height="175" fill="none" xmlns="http://www.w3.org/2000/svg"><path d="M87.5 0C39.2506 0 0 39.2506 0 87.5 0 135.749 39.2506 175 87.5 175c48.249 0 87.5-39.251 87.5-87.5C175 39.2506 135.749 0 87.5 0z" fill="#FFDA45"/><path d="M94.7912 131.25c0 4.027-3.2644 7.291-7.2912 7.291s-7.2913-3.264-7.2913-7.291c0-4.027 3.2645-7.291 7.2913-7.291s7.2912 3.264 7.2912 7.291zM99.0423 92.1811c-2.5808 1.1882-4.2511 3.7918-4.2511 6.629v3.2739c0 4.024-3.2591 7.291-7.2912 7.291s-7.2912-3.267-7.2912-7.291v-3.2739c0-8.5103 5.0014-16.3115 12.7239-19.8777 7.4303-3.4193 12.7963-12.4983 12.7963-16.9536 0-10.047-8.174-18.2288-18.229-18.2288s-18.2287 8.1818-18.2287 18.2288c0 4.0254-3.2604 7.2925-7.2926 7.2925-4.0321 0-7.2912-3.2671-7.2912-7.2925 0-18.0899 14.7213-32.8125 32.8125-32.8125 18.091 0 32.812 14.7226 32.812 32.8125 0 9.852-8.546 24.333-21.2697 30.2023z" fill="#309"/></svg>