<svg width="175" height="175" fill="none" xmlns="http://www.w3.org/2000/svg"><path d="M175 87.5c0 11.3999-2.179 22.289-6.147 32.279a86.9505 86.9505 0 01-7.839 15.192 87.6334 87.6334 0 01-13.518 16.218 87.5543 87.5543 0 01-9.582 7.836C123.664 169.089 106.275 175 87.5 175c-18.7749 0-36.1642-5.911-50.4144-15.975-4.2287-2.985-8.1785-6.332-11.8036-10.004C9.65 133.218 0 111.482 0 87.5c0-23.9822 9.65-45.7177 25.282-61.5214a87.69 87.69 0 0112.5535-10.5249C51.9429 5.707 69.0536 0 87.5 0c18.446 0 35.557 5.707 49.664 15.4537 3.447 2.3751 6.711 4.9963 9.772 7.8357a87.6209 87.6209 0 0114.078 16.7391 87.0423 87.0423 0 017.84 15.1929C172.821 65.2107 175 76.1001 175 87.5z" fill="#FFDA45"/><path d="M133.66 79.6284c-2.436-7.0629-12.422-7.0629-14.37-1.2178-1.948 5.8451 4.628 9.2545 14.857 12.6646 10.229 3.4098 16.561 12.4208 15.344 20.4578-1.218 8.037-4.628 18.51-24.842 18.51-12.634 0-19.655-7.897-23.145-13.819l11.454-6.883s3.897 8.281 11.203 8.281c7.307 0 10.229-2.435 10.229-8.037 0-6.819-23.624-9.255-27.277-20.9451-3.653-11.6905 1.218-28.2516 18.266-27.0341 10.655.7612 16.649 5.9934 19.646 9.8106l-11.365 8.212zM80.5662 62.824v46.761c0 5.602-4.8709 8.525-9.7419 7.55-4.8709-.974-7.0629-6.819-7.0629-6.819l-11.2031 7.55s2.4354 11.203 17.779 12.177c15.3436.975 24.111-8.28 24.111-16.074V62.824H80.5662z" fill="#309"/><path d="M25.282 15.4537V149.021c3.6251 3.672 7.5749 7.018 11.8036 10.004H137.914a87.6601 87.6601 0 009.583-7.836H33.1177V23.2894H161.014V134.972a86.995 86.995 0 007.839-15.193V15.4537H25.282z" fill="#309"/><path d="M30.0286 129.8c7.6668 0 13.882-6.215 13.882-13.882s-6.2152-13.882-13.882-13.882c-7.6669 0-13.8821 6.215-13.8821 13.882S22.3617 129.8 30.0286 129.8z" fill="#3F4A43"/></svg>