<svg width="175" height="175" fill="none" xmlns="http://www.w3.org/2000/svg"><path d="M175 87.5c0 28.829-13.943 54.4-35.45 70.343-9.004 6.671-19.332 11.657-30.518 14.486-6.889 1.746-14.1 2.671-21.532 2.671s-14.6463-.925-21.5356-2.671c-11.1856-2.829-21.5144-7.815-30.518-14.49C13.9392 141.896 0 116.325 0 87.5 0 39.175 39.175 0 87.5 0S175 39.175 175 87.5z" fill="#FFDA45"/><path d="M139.639 136.768c-.41-2.754-.953-5.589-1.625-8.489-.593-2.547-1.282-5.143-2.064-7.779-2.057-6.921-4.767-14.114-8.053-21.3854-1.439-3.1788-2.989-6.3715-4.643-9.5608-1.457-2.8106-2.993-5.6249-4.611-8.4215-1.614-2.8-3.278-5.5358-4.989-8.2035a196.7281 196.7281 0 00-5.957-8.7965c-4.65-6.4821-9.5251-12.4284-14.4932-17.6716-1.8891-1.9964-3.7929-3.8893-5.7035-5.6714-2.1749-2.0357-4.3607-3.9248-6.543-5.6571-14.2465-11.3107-26.9999-14.7072-35.9178-9.5607-8.9178 5.1498-12.3535 17.8927-9.682 35.8893.407 2.7536.9536 5.5895 1.6286 8.4893.5859 2.5463 1.2749 5.143 2.0607 7.7786 2.0573 6.9214 4.7677 14.1179 8.0572 21.3855 1.4359 3.1788 2.9856 6.3678 4.6392 9.5568 1.4571 2.815 2.9965 5.625 4.6108 8.425 1.6144 2.8 3.2786 5.536 4.9893 8.204a200.5605 200.5605 0 005.9571 8.8c4.6502 6.482 9.5249 12.425 14.4929 17.667 1.8895 1.997 3.7963 3.893 5.707 5.675 2.1748 2.036 4.3606 3.922 6.5392 5.654 5.2394 4.161 10.2755 7.25 14.9925 9.232 11.186-2.829 21.515-7.814 30.518-14.486 1.257-5.792 1.303-12.888.089-21.074zm-8.021 19.775c-1.04 4.493-2.95 7.571-5.682 9.146-2.729 1.579-6.35 1.693-10.761.35-4.779-1.46-10.357-4.653-16.1357-9.242-1.9427-1.543-3.8893-3.222-5.8358-5.026-1.9072-1.771-3.8144-3.664-5.707-5.668-3.2501-3.439-6.4644-7.203-9.6-11.242a180.9126 180.9126 0 01-6.1643-8.44c-2.918-4.239-5.7357-8.703-8.4144-13.346-2.6821-4.643-5.1392-9.314-7.35-13.9608-1.5285-3.2036-2.9394-6.3964-4.2249-9.557-1.9322-4.7356-3.5858-9.4035-4.9393-13.9357-.7858-2.6428-1.4749-5.2357-2.0501-7.7749-.5931-2.5857-1.075-5.1143-1.4394-7.5677-1.0855-7.2963-1.0605-13.7248.0643-18.5927 1.0394-4.4929 2.9535-7.5715 5.682-9.1465 1.4749-.8501 3.2071-1.2787 5.182-1.2787 1.6858 0 3.5499.3107 5.5785.9321 4.7787 1.4571 10.3571 4.6536 16.1355 9.2395 1.9428 1.5428 3.8928 3.2214 5.8359 5.0322 1.9106 1.7678 3.8144 3.6607 5.7035 5.6609 3.2536 3.4391 6.4679 7.2037 9.6073 11.2465a180.4636 180.4636 0 016.1639 8.4393c2.915 4.2393 5.733 8.7035 8.411 13.3427 2.682 4.643 5.139 9.3143 7.35 13.9607 1.528 3.2071 2.939 6.4001 4.225 9.5611 1.932 4.735 3.586 9.4 4.939 13.932.786 2.642 1.475 5.235 2.054 7.774.589 2.586 1.071 5.115 1.436 7.568 1.086 7.297 1.061 13.725-.064 18.593z" fill="#309"/><path d="M146.179 72.7893c-2.59-1.0213-5.318-1.9678-8.168-2.8393-2.5-.7609-5.093-1.4643-7.768-2.1035-7.022-1.6785-14.607-2.9285-22.547-3.7143-3.467-.3466-7.007-.5998-10.5926-.7608a208.0976 208.0976 0 00-9.6034-.2215c-3.232 0-6.4395.0749-9.6072.2215-3.5893.1606-7.1286.418-10.5964.7608-7.9393.7858-15.5214 2.0358-22.5429 3.7143-2.6749.6392-5.2678 1.343-7.768 2.1035-2.8499.8678-5.5785 1.818-8.1679 2.8393C11.9 79.4676 2.5785 88.8178 2.5785 99.1141c0 10.2959 9.3215 19.6469 26.2394 26.3289 2.5895 1.021 5.3143 1.967 8.1642 2.839 2.4999.761 5.0927 1.464 7.768 2.1 7.0215 1.682 14.607 2.929 22.55 3.718 3.4679.343 7.0072.596 10.5964.761 3.1644.146 6.3715.217 9.6035.217s6.4357-.071 9.6-.217c3.589-.165 7.125-.418 10.596-.761 7.94-.786 15.529-2.036 22.55-3.718 2.675-.639 5.268-1.339 7.768-2.103 2.847-.868 5.576-1.815 8.165-2.836 16.921-6.682 26.239-16.032 26.239-26.3289 0-10.2963-9.318-19.6465-26.239-26.3248zm13.114 35.8177c-3.65 3.411-9.207 6.643-16.068 9.353-2.311.911-4.74 1.761-7.275 2.54-2.49.768-5.079 1.471-7.757 2.107-4.604 1.096-9.472 1.996-14.54 2.693-3.378.468-6.846.843-10.386 1.118-5.1317.411-10.4066.618-15.7674.618-5.3607 0-10.6357-.207-15.7677-.614-3.5393-.279-7.0106-.654-10.3893-1.122-5.0678-.696-9.9357-1.596-14.5394-2.693-2.6786-.636-5.2677-1.339-7.757-2.107-2.5358-.779-4.9643-1.629-7.2752-2.539-6.8605-2.711-12.4178-5.943-16.0678-9.354-3.3715-3.146-5.0822-6.339-5.0822-9.4926 0-3.1534 1.7107-6.3464 5.0822-9.4927 3.65-3.4108 9.2069-6.6428 16.0678-9.3536 2.3106-.9105 4.7394-1.7606 7.2752-2.5392 2.4893-.768 5.0784-1.4714 7.757-2.1072 4.6037-1.0965 9.4716-1.9964 14.5394-2.693 3.3787-.4679 6.85-.8429 10.3893-1.1214 5.132-.4071 10.407-.6142 15.7677-.6142 5.3608 0 10.6357.2071 15.7674.6179 3.54.2752 7.008.6501 10.386 1.1181 5.068.6965 9.936 1.5965 14.54 2.693 2.678.6357 5.267 1.3391 7.757 2.1071 2.535.7787 4.964 1.6287 7.275 2.5393 6.86 2.7107 12.418 5.9428 16.068 9.3536 3.371 3.1466 5.082 6.3393 5.082 9.4927 0 3.1532-1.711 6.3462-5.082 9.4922z" fill="#309"/><path d="M129.957 25.5715c-8.918-5.1465-21.671-1.75-35.9177 9.5607-2.1786 1.7323-4.3644 3.6214-6.5393 5.6571-1.9106 1.7821-3.8179 3.6784-5.707 5.6749-4.968 5.2428-9.8427 11.1856-14.4963 17.6678a199.0331 199.0331 0 00-5.9534 8.7965 203.38 203.38 0 00-4.9892 8.2034c-1.6143 2.8-3.1534 5.6106-4.6108 8.425-1.6536 3.1893-3.2037 6.382-4.6392 9.557-3.2895 7.2711-5.9999 14.4641-8.0572 21.3851-.7858 2.64-1.4749 5.236-2.0645 7.782-.6713 2.901-1.2178 5.733-1.6249 8.486-1.2144 8.183-1.1679 15.279.0892 21.072 9.0037 6.675 19.3321 11.66 30.5181 14.489 4.7178-1.982 9.7535-5.071 14.9929-9.232 2.182-1.732 4.3678-3.621 6.543-5.654 1.9106-1.782 3.8144-3.675 5.7036-5.671 4.9642-5.243 9.8427-11.19 14.4927-17.672 2.032-2.836 4.022-5.771 5.957-8.8 1.711-2.667 3.375-5.403 4.99-8.203 1.617-2.797 3.153-5.607 4.61-8.422 1.654-3.189 3.204-6.382 4.643-9.5605 3.286-7.2679 5.997-14.4641 8.054-21.3855.782-2.6356 1.471-5.2322 2.06-7.7786.676-2.9002 1.218-5.7357 1.629-8.4892 2.671-17.996-.765-30.7389-9.683-35.8887zm-1.764 50.05c-1.354 4.5322-3.007 9.1964-4.939 13.932-1.286 3.1606-2.697 6.3536-4.225 9.5607-2.211 4.6468-4.668 9.3178-7.35 13.9608-2.679 4.639-5.497 9.103-8.411 13.343-2.014 2.928-4.0748 5.746-6.1676 8.442-3.1356 4.04-6.3499 7.804-9.6035 11.243-1.8891 2-3.7929 3.893-5.7035 5.664-1.9428 1.807-3.8928 3.486-5.8359 5.029-5.7784 4.589-11.3572 7.782-16.1355 9.243-4.4106 1.343-8.0322 1.228-10.7608-.35-2.7286-1.575-4.643-4.654-5.682-9.147-1.1249-4.868-1.1502-11.296-.0643-18.592.3644-2.454.8463-4.983 1.4356-7.568.5786-2.539 1.2677-5.132 2.0535-7.775 1.3535-4.532 3.0071-9.2 4.9393-13.936 1.2858-3.16 2.6964-6.353 4.2249-9.5568 2.2108-4.6464 4.6679-9.3177 7.35-13.9607 2.6787-4.6429 5.4965-9.1072 8.4144-13.3465 2.0108-2.9251 4.0677-5.7428 6.1605-8.4355 3.1394-4.0428 6.3537-7.807 9.6035-11.2465 1.8929-2.0036 3.8001-3.8965 5.707-5.6643 1.9465-1.807 3.8927-3.4856 5.8358-5.0285 5.7786-4.5855 11.3576-7.782 16.1356-9.2394 2.029-.6214 3.893-.9321 5.578-.9321 1.975 0 3.711.4286 5.182 1.2787 2.732 1.575 4.643 4.6535 5.682 9.1464 1.125 4.8679 1.151 11.2964.065 18.5928-.365 2.4534-.847 4.982-1.44 7.5677-.574 2.5392-1.264 5.1321-2.049 7.7752z" fill="#309"/><path d="M87.5 115.075c8.8147 0 15.961-7.146 15.961-15.9609 0-8.8147-7.1463-15.9605-15.961-15.9605-8.8148 0-15.9606 7.1458-15.9606 15.9605 0 8.8149 7.1458 15.9609 15.9606 15.9609z" fill="#309"/></svg>