<svg width="175" height="175" fill="none" xmlns="http://www.w3.org/2000/svg"><path d="M87.5 175c48.325 0 87.5-39.175 87.5-87.5C175 39.1751 135.825 0 87.5 0 39.1751 0 0 39.1751 0 87.5 0 135.825 39.1751 175 87.5 175z" fill="#FFDA45"/><path d="M70.9979 112.383h33.0181v14.629H70.9979v-14.629z" fill="#2F4859"/><path d="M131.66 46.1013H43.3398c-1.8725 0-3.3906 1.5181-3.3906 3.3906v62.6441c0 1.873 1.5181 3.391 3.3906 3.391H131.66c1.873 0 3.391-1.518 3.391-3.391V49.4919c0-1.8725-1.518-3.3906-3.391-3.3906z" fill="#3A556A"/><path d="M45.7734 51.9257h83.4536v51.9393H45.7734V51.9257z" fill="#309"/><path d="M110.25 125.111H64.7501a1.9065 1.9065 0 00-1.2385.608c-.3221.351-.5009.81-.5009 1.286s.1788.935.5009 1.285c.3221.351.7641.568 1.2385.608H110.25c.475-.04.917-.257 1.239-.608.322-.35.5-.809.5-1.285 0-.476-.178-.935-.5-1.286a1.906 1.906 0 00-1.239-.608z" fill="#3A556A"/><path d="M87.4998 106.969c-.5408 0-1.0695.16-1.5192.461a2.7344 2.7344 0 00-.4143 4.207 2.733 2.733 0 001.4.748 2.7303 2.7303 0 001.5799-.156 2.7257 2.7257 0 001.2271-1.007 2.7338 2.7338 0 00-.34-3.452 2.7337 2.7337 0 00-1.9335-.801z" fill="#2F4859"/><path d="M64.1346 64.5863h-.8066V59.432a4.6365 4.6365 0 01-.7656.5606 4.8088 4.8088 0 01-.8614.4101v-.7793c.4322-.195.833-.453 1.1895-.7656a3.3079 3.3079 0 00.7246-.875h.5195v6.6035zM67.7032 61.3322a6.3274 6.3274 0 01.2324-1.8731 2.3513 2.3513 0 01.7109-1.0937 1.859 1.859 0 011.2031-.3828c.3217-.005.64.0652.9297.205.2625.1529.4868.3633.6563.6153.1847.306.3229.6377.4101.9844a6.6944 6.6944 0 01.1368 1.5449 5.906 5.906 0 01-.2325 1.873 2.1876 2.1876 0 01-.6562 1.0528 1.8047 1.8047 0 01-1.1895.3964 1.8326 1.8326 0 01-1.5039-.6835 4.402 4.402 0 01-.6972-2.6387zm.8339 0a4.2387 4.2387 0 00.3692 2.1601 1.1207 1.1207 0 00.9433.5332 1.1066 1.1066 0 00.9297-.5332 4.1012 4.1012 0 00.3828-2.1601 4.0052 4.0052 0 00-.3828-2.1465 1.0937 1.0937 0 00-.9433-.5469 1.0399 1.0399 0 00-.8887.4785 4.1976 4.1976 0 00-.4102 2.2149zM77.9294 64.5859h-.8066v-5.1543a4.6365 4.6365 0 01-.7656.5606 5.2227 5.2227 0 01-.8477.4101v-.7793a4.7158 4.7158 0 001.1758-.7656 3.3079 3.3079 0 00.7246-.875h.5195v6.6035zM84.9023 64.5859h-.8066v-5.1543a4.1014 4.1014 0 01-.7656.5606 4.7224 4.7224 0 01-.8477.4101v-.7793c.4321-.195.833-.453 1.1895-.7656a2.9787 2.9787 0 00.7109-.875h.5195v6.6035zM88.4706 61.3322a5.866 5.866 0 01.2461-1.8731 2.3515 2.3515 0 01.711-1.0937 1.8044 1.8044 0 011.1894-.3828c.322-.0082.6411.0622.9297.205.2692.1487.4989.3597.6699.6153.18.3068.3136.6385.3965.9843a5.934 5.934 0 01.1504 1.545 6.33 6.33 0 01-.2324 1.873 2.2834 2.2834 0 01-.7109 1.0938 1.996 1.996 0 01-2.7344-.2871 4.3067 4.3067 0 01-.6153-2.6797zm.834 0a4.1022 4.1022 0 00.3828 2.1601 1.1082 1.1082 0 00.9297.5332 1.1473 1.1473 0 00.9434-.5332 4.1973 4.1973 0 00.3828-2.1601 4.1012 4.1012 0 00-.3418-2.1465 1.121 1.121 0 00-.9434-.5469 1.0398 1.0398 0 00-.8886.4785 4.102 4.102 0 00-.4649 2.2149zM98.7656 64.5859h-.8203v-5.1543a3.705 3.705 0 01-.7656.5606 4.7224 4.7224 0 01-.8477.4101v-.7793c.4322-.195.833-.453 1.1895-.7656a2.9787 2.9787 0 00.7109-.875h.5332v6.6035zM102.334 61.3321a5.891 5.891 0 01.205-1.8731c.129-.4243.375-.8035.711-1.0938a1.817 1.817 0 011.203-.3828 1.969 1.969 0 01.916.2051c.269.1487.499.3597.67.6152.179.3089.317.6398.41.9844.105.508.151 1.0264.137 1.545a5.9013 5.9013 0 01-.233 1.873c-.125.426-.372.8061-.711 1.0937a1.8026 1.8026 0 01-1.189.3965 1.8294 1.8294 0 01-.833-.1626 1.8307 1.8307 0 01-.671-.521 4.3241 4.3241 0 01-.615-2.6796zm.82 0a4.1974 4.1974 0 00.383 2.1601c.097.1613.235.2948.399.3874a1.0914 1.0914 0 001.075 0c.164-.0926.302-.2261.399-.3874a4.1974 4.1974 0 00.383-2.1601 4.1047 4.1047 0 00-.383-2.1465 1.125 1.125 0 00-.401-.3959 1.1204 1.1204 0 00-.542-.151 1.0425 1.0425 0 00-.507.1241 1.0397 1.0397 0 00-.382.3544 4.1008 4.1008 0 00-.424 2.2149zM112.615 64.5859h-.807v-5.1543a4.6026 4.6026 0 01-.765.5606 4.8117 4.8117 0 01-.861.4101v-.7793c.432-.195.832-.453 1.189-.7656.29-.2477.535-.5437.725-.875h.519v6.6035zM64.1346 75.6055h-.8066v-5.1407a4.6314 4.6314 0 01-.7656.5469 4.9606 4.9606 0 01-.8614.4238v-.7793a5.2615 5.2615 0 001.1895-.7792 3.1041 3.1041 0 00.7246-.875h.5195v6.6035zM67.7988 72.3654a6.4283 6.4283 0 01.2325-1.8867c.1375-.4238.388-.802.7246-1.0938a1.8044 1.8044 0 011.1894-.3828 1.8728 1.8728 0 01.9297.2187c.2683.1449.4944.3569.6563.6153.1927.2969.3316.6255.4101.9707a6.6422 6.6422 0 01.1504 1.5586 5.7674 5.7674 0 01-.2461 1.8593 2.2971 2.2971 0 01-.7109 1.1075 2.0096 2.0096 0 01-2.7344-.3008 4.389 4.389 0 01-.6016-2.666zm.834 0a4.1703 4.1703 0 00.3692 2.1465 1.1207 1.1207 0 00.9433.5468 1.0941 1.0941 0 00.9297-.5468 4.0063 4.0063 0 00.3828-2.1465 4.1014 4.1014 0 00-.3828-2.1602 1.1082 1.1082 0 00-.9433-.5332 1.0254 1.0254 0 00-.8887.4649 4.2935 4.2935 0 00-.4102 2.2285zM74.8262 72.3654a6.0002 6.0002 0 01.2324-1.8867 2.4201 2.4201 0 01.7109-1.0938 1.8048 1.8048 0 011.1895-.3828 1.832 1.832 0 01.9297.2187c.2751.1403.5068.353.6699.6153.1823.3007.3161.6283.3965.9707a5.9767 5.9767 0 01.1504 1.5586 6.2357 6.2357 0 01-.2325 1.8593 2.393 2.393 0 01-.7109 1.1075 1.8183 1.8183 0 01-1.2031.3828 1.7916 1.7916 0 01-1.4903-.6836 4.2926 4.2926 0 01-.6425-2.666zm.8203 0a4.102 4.102 0 00.3828 2.1465 1.0941 1.0941 0 00.9297.5468 1.1077 1.1077 0 00.9433-.5468 4.101 4.101 0 00.3828-2.1465 4.1971 4.1971 0 00-.3554-2.1602 1.1483 1.1483 0 00-.9434-.5332 1.0253 1.0253 0 00-.8887.4649 4.1016 4.1016 0 00-.4511 2.2285zM81.8398 72.3654a5.948 5.948 0 01.1914-1.8867 2.4201 2.4201 0 01.7109-1.0938 1.8048 1.8048 0 011.1895-.3828 1.832 1.832 0 01.9297.2187c.274.1368.502.3507.6562.6153.1928.2969.3316.6255.4102.9707a6.642 6.642 0 01.205 1.5586 6.2324 6.2324 0 01-.2324 1.8593 2.393 2.393 0 01-.7109 1.1075 1.8462 1.8462 0 01-1.2031.3828 1.7639 1.7639 0 01-1.4903-.6836 4.2929 4.2929 0 01-.6562-2.666zm.834 0a4.0054 4.0054 0 00.3828 2.1465 1.0935 1.0935 0 00.9297.5468 1.1208 1.1208 0 00.9433-.5468 4.1703 4.1703 0 00.3692-2.1465 4.239 4.239 0 00-.3692-2.1602 1.1483 1.1483 0 00-.957-.5332.9986.9986 0 00-.875.4649 4.1007 4.1007 0 00-.4238 2.2285zM92.2168 75.6055h-.8066v-5.1407a3.7067 3.7067 0 01-.7657.5469 4.8725 4.8725 0 01-.8476.4238v-.7793a5.2631 5.2631 0 001.1894-.7792 2.8162 2.8162 0 00.711-.875h.5195v6.6035zM95.8944 72.3653a6.4252 6.4252 0 01.2324-1.8867 2.4192 2.4192 0 01.711-1.0937 1.8453 1.8453 0 011.2031-.3829 1.8193 1.8193 0 01.916.2188c.2752.1402.5068.353.6699.6152.1815.3028.3195.6296.4102.9707.106.5125.152 1.0355.137 1.5586a5.8246 5.8246 0 01-.2327 1.8594 2.3921 2.3921 0 01-.711 1.1074 2.0098 2.0098 0 01-2.7343-.3008 4.2927 4.2927 0 01-.6016-2.666zm.8203 0a4.1011 4.1011 0 00.3555 2.1465 1.1071 1.1071 0 00.9433.5469 1.094 1.094 0 00.9297-.5469 4.1006 4.1006 0 00.3828-2.1465 4.196 4.196 0 00-.3828-2.1601 1.1216 1.1216 0 00-.916-.4786 1.0253 1.0253 0 00-.8887.4649 4.2652 4.2652 0 00-.4238 2.1738zM102.908 72.3654a5.9328 5.9328 0 01.246-1.8867c.132-.4228.378-.8012.711-1.0938.338-.2652.76-.4009 1.189-.3828.324-.0106.645.0649.93.2187.274.1368.502.3507.656.6153.193.2969.332.6255.411.9707.118.5107.168 1.0347.15 1.5586a6.245 6.245 0 01-.232 1.8593c-.129.4284-.376.812-.711 1.1075-.344.265-.77.4006-1.204.3828a1.7648 1.7648 0 01-.829-.1581 1.7728 1.7728 0 01-.661-.5255 4.2973 4.2973 0 01-.656-2.666zm.834 0a4.0055 4.0055 0 00.383 2.1465c.094.1637.23.3001.393.396.162.0958.347.1478.536.1508a1.121 1.121 0 00.543-.151c.165-.0957.303-.2319.401-.3958.311-.6702.438-1.411.369-2.1465a4.2463 4.2463 0 00-.369-2.1602 1.1436 1.1436 0 00-.405-.3848 1.151 1.151 0 00-.539-.1484 1.0085 1.0085 0 00-.505.1146 1.0112 1.0112 0 00-.383.3503 4.1017 4.1017 0 00-.424 2.2285zM113.299 75.6055h-.82v-5.1407a3.7194 3.7194 0 01-.766.5469 4.8586 4.8586 0 01-.848.4238v-.7793a5.278 5.278 0 001.19-.7792c.293-.2408.535-.5384.711-.875h.533v6.6035zM64.1346 86.6388h-.8066v-5.1543a4.6359 4.6359 0 01-.7656.5605 4.8093 4.8093 0 01-.8614.4102v-.7793a4.8012 4.8012 0 001.1895-.7656 3.3095 3.3095 0 00.7246-.875h.5195v6.6035zM67.7029 83.3987a6.3297 6.3297 0 01.2325-1.873 2.3503 2.3503 0 01.7109-1.0938 1.8596 1.8596 0 011.2031-.3828c.3217-.005.64.0652.9297.2051.2683.1449.4944.3569.6563.6152.1869.3049.3253.637.4101.9844a6.7004 6.7004 0 01.1367 1.5449 5.904 5.904 0 01-.2324 1.8731 2.256 2.256 0 01-.7109 1.0937 1.805 1.805 0 01-1.1895.3965 1.8331 1.8331 0 01-1.4902-.6289 4.4028 4.4028 0 01-.6563-2.7344zm.834 0a4.239 4.239 0 00.3692 2.1602 1.121 1.121 0 00.9433.5332 1.108 1.108 0 00.9297-.5332 6.2889 6.2889 0 000-4.3204 1.1079 1.1079 0 00-.9433-.5332 1.0386 1.0386 0 00-.8887.4786 4.197 4.197 0 00-.4102 2.2148zM77.9294 86.6388h-.8066v-5.1543a4.6359 4.6359 0 01-.7656.5605 5.2232 5.2232 0 01-.8477.4102v-.7793a4.7186 4.7186 0 001.1758-.7656 3.3095 3.3095 0 00.7246-.875h.5195v6.6035zM81.5526 83.3984a6.3333 6.3333 0 01.2324-1.873 2.3655 2.3655 0 01.7246-1.0937 1.8049 1.8049 0 011.1895-.3829 2.0246 2.0246 0 01.9297.2051c.2682.1449.4943.3569.6562.6153.1928.3018.3316.6349.4102.9843a6.5912 6.5912 0 01.1504 1.5449 5.8657 5.8657 0 01-.2461 1.8731 2.2555 2.2555 0 01-.711 1.0937 1.804 1.804 0 01-1.1894.3965 1.7898 1.7898 0 01-1.4902-.6836 4.3065 4.3065 0 01-.6563-2.6797zm.834 0c-.0685.74.0588 1.485.3691 2.1602a1.1494 1.1494 0 00.9434.5332 1.1076 1.1076 0 00.9297-.5332 6.2886 6.2886 0 000-4.3203 1.1074 1.1074 0 00-.9434-.5332 1.0395 1.0395 0 00-.8886.4785 4.1973 4.1973 0 00-.4102 2.2148zM91.8339 86.6389h-.8067v-5.1543a4.1027 4.1027 0 01-.7929.5469 5.2315 5.2315 0 01-.8477.4102v-.7793a4.486 4.486 0 001.1758-.7657 3.063 3.063 0 00.7246-.875h.5195l.0274 6.6172zM95.4022 83.3985a5.8667 5.8667 0 01.3008-1.8868 2.256 2.256 0 01.7109-1.0937 1.8048 1.8048 0 011.1895-.3828 2.022 2.022 0 01.9297.2051c.2682.1449.4943.3568.6562.6152.1928.3019.3315.6349.4102.9844a6.5921 6.5921 0 01.0957 1.5586 5.8655 5.8655 0 01-.2461 1.873 2.256 2.256 0 01-.7109 1.0937 1.8044 1.8044 0 01-1.1895.3965 1.7898 1.7898 0 01-1.4902-.6836 4.3064 4.3064 0 01-.6563-2.6796zm.834 0a4.1012 4.1012 0 00.3828 2.1601 1.0798 1.0798 0 00.9297.5303 1.0803 1.0803 0 00.9297-.5303 6.2886 6.2886 0 000-4.3203 1.1074 1.1074 0 00-.9434-.5332 1.0395 1.0395 0 00-.8886.4785 4.1975 4.1975 0 00-.4102 2.2149zM105.684 86.6388h-.807v-5.1543a4.118 4.118 0 01-.766.5605c-.269.162-.553.2993-.847.4102v-.7793a4.7928 4.7928 0 001.189-.7656 3.222 3.222 0 00.711-.875h.52v6.6035zM112.615 86.6388h-.807v-5.1543a4.602 4.602 0 01-.765.5605c-.273.165-.561.3023-.861.4102v-.7793a4.8113 4.8113 0 001.189-.7656c.29-.2477.535-.5438.725-.875h.519v6.6035zM64.1346 97.6583h-.8066v-5.1406a4.6373 4.6373 0 01-.7656.5469 4.9606 4.9606 0 01-.8614.4238v-.7793a5.262 5.262 0 001.1895-.7793 3.1027 3.1027 0 00.7246-.875h.5195v6.6035zM67.7988 94.4179a6.429 6.429 0 01.2325-1.8868 2.4471 2.4471 0 01.7246-1.0937 1.8044 1.8044 0 011.1894-.3828 1.8728 1.8728 0 01.9297.2187c.2683.1449.4944.3569.6563.6153.1927.2969.3316.6255.4101.9707a6.6422 6.6422 0 01.1504 1.5586 5.7674 5.7674 0 01-.2461 1.8593 2.2971 2.2971 0 01-.7109 1.1075 2.01 2.01 0 01-2.7344-.3008 4.389 4.389 0 01-.6016-2.666zm.834 0a4.1698 4.1698 0 00.3692 2.1464 1.121 1.121 0 00.9433.5469 1.094 1.094 0 00.9297-.5469 4.0058 4.0058 0 00.3828-2.1464 4.1014 4.1014 0 00-.3828-2.1602 1.1082 1.1082 0 00-.9433-.5332 1.0254 1.0254 0 00-.8887.4648 4.294 4.294 0 00-.4102 2.2286zM74.826 94.4179a6.0012 6.0012 0 01.2324-1.8868 2.4203 2.4203 0 01.7109-1.0937 1.8048 1.8048 0 011.1895-.3828 1.832 1.832 0 01.9297.2187c.2751.1403.5068.353.6699.6153.1823.3007.3161.6283.3965.9707a5.9767 5.9767 0 01.1504 1.5586 6.2325 6.2325 0 01-.2325 1.8593 2.393 2.393 0 01-.7109 1.1075 1.8182 1.8182 0 01-1.2031.3828 1.7912 1.7912 0 01-1.4903-.6973 4.293 4.293 0 01-.6425-2.6523zm.8203 0a4.1014 4.1014 0 00.3828 2.1464 1.094 1.094 0 00.9297.5469 1.1071 1.1071 0 00.9433-.5469 4.1014 4.1014 0 00.3829-2.1464 4.198 4.198 0 00-.3555-2.1602 1.1485 1.1485 0 00-.9434-.5332 1.0253 1.0253 0 00-.8886.4648 4.102 4.102 0 00-.4512 2.2286zM85.2031 97.6583h-.8066v-5.1406a4.6373 4.6373 0 01-.7656.5469 4.9606 4.9606 0 01-.8614.4238v-.7793a4.9743 4.9743 0 001.1895-.7793 3.1027 3.1027 0 00.7246-.875h.5195v6.6035zM88.8671 94.4179a5.948 5.948 0 01.246-1.8868 2.3112 2.3112 0 01.711-1.0937 1.8044 1.8044 0 011.1894-.3828 1.8728 1.8728 0 01.9297.2187c.2683.1449.4944.3569.6563.6153.1928.2969.3316.6255.4101.9707a6.6422 6.6422 0 01.1504 1.5586 5.7672 5.7672 0 01-.1914 1.8593 2.2971 2.2971 0 01-.7109 1.1075 1.8053 1.8053 0 01-1.1895.3828 1.7497 1.7497 0 01-1.4902-.6836 4.2924 4.2924 0 01-.7109-2.666zm.8339 0a4.1698 4.1698 0 00.3692 2.1464 1.121 1.121 0 00.9433.5469 1.094 1.094 0 00.9297-.5469 4.0049 4.0049 0 00.3828-2.1464 4.1014 4.1014 0 00-.3828-2.1602 1.1082 1.1082 0 00-.9433-.5332 1.0254 1.0254 0 00-.8887.4648 4.294 4.294 0 00-.4102 2.2286zM95.8944 94.4178a6.4252 6.4252 0 01.2324-1.8867 2.42 2.42 0 01.711-1.0938 1.8458 1.8458 0 011.2031-.3828 1.8183 1.8183 0 01.916.2188c.2752.1402.5068.3529.6699.6152.1815.3028.3195.6296.4102.9707.106.5125.152 1.0355.137 1.5586a5.825 5.825 0 01-.2327 1.8594 2.3921 2.3921 0 01-.711 1.1074 2.0095 2.0095 0 01-2.7343-.3008 4.2927 4.2927 0 01-.6016-2.666zm.8203 0a4.1013 4.1013 0 00.3555 2.1465 1.1071 1.1071 0 00.9433.5469 1.094 1.094 0 00.9297-.5469 4.101 4.101 0 00.3828-2.1465 4.196 4.196 0 00-.3828-2.1601 1.1207 1.1207 0 00-.9433-.5332 1.0253 1.0253 0 00-.8887.4648 4.2663 4.2663 0 00-.3965 2.2285zM102.908 94.4179a5.9338 5.9338 0 01.246-1.8868 2.414 2.414 0 01.711-1.0937c.338-.2652.76-.4009 1.189-.3828.324-.0106.645.0649.93.2187.274.1368.502.3507.656.6153.193.2969.332.6255.411.9707.118.5106.168 1.0347.15 1.5586a6.245 6.245 0 01-.232 1.8593c-.129.4284-.376.812-.711 1.1075-.344.265-.77.4006-1.204.3828a1.7648 1.7648 0 01-.829-.1581 1.7728 1.7728 0 01-.661-.5255 4.2973 4.2973 0 01-.656-2.666zm.834 0a4.005 4.005 0 00.383 2.1464c.094.1638.23.3002.393.3961.162.0958.347.1478.536.1508a1.121 1.121 0 00.944-.5469 4.1727 4.1727 0 00.369-2.1464c.068-.74-.059-1.485-.369-2.1602a1.1448 1.1448 0 00-.405-.3849 1.152 1.152 0 00-.539-.1483c-.175-.0064-.35.033-.505.1146a1.0118 1.0118 0 00-.383.3502 4.102 4.102 0 00-.424 2.2286zM113.299 97.6583h-.82v-5.1406a3.7194 3.7194 0 01-.766.5469 4.8656 4.8656 0 01-.848.4238v-.7793c.43-.2048.83-.4669 1.19-.7793.293-.2408.535-.5384.711-.875h.533v6.6035z" fill="#E1E6E9"/><path d="M88.4706 64.7771a13.125 13.125 0 1010.913 20.4169 13.1239 13.1239 0 002.2124-7.2919 13.1258 13.1258 0 00-.996-5.0248 13.1078 13.1078 0 00-2.8446-4.26 13.112 13.112 0 00-9.2848-3.8402z" fill="#FFDA45"/><path d="M87.4999 82.9884l-4.7715-4.7715 1.9414-1.9277 2.8301 2.8301 5.9472-5.9473 1.9414 1.9277-7.8886 7.8887z" fill="#309"/></svg>