<svg width="85" height="85" fill="none" xmlns="http://www.w3.org/2000/svg"><path d="M62.5879 2.6563c-12.3582 0-22.4121 10.0539-22.4121 22.4121 0 12.3582 10.0539 22.4121 22.4121 22.4121C74.9461 47.4805 85 37.4266 85 25.0684 85 12.7102 74.9461 2.6562 62.5879 2.6562zm0 34.8632a7.4613 7.4613 0 01-6.883-4.5621l4.587-1.9407a2.4904 2.4904 0 002.296 1.5224c1.3729 0 2.4902-1.1173 2.4902-2.4903 0-1.3729-1.1173-2.4902-2.4902-2.4902-4.1189 0-7.4707-3.3519-7.4707-7.4707 0-4.1189 3.3518-7.4707 7.4707-7.4707a7.4613 7.4613 0 016.883 4.5621l-4.587 1.9407c-.3918-.9247-1.2916-1.5223-2.296-1.5223-1.373 0-2.4902 1.1172-2.4902 2.4902 0 1.3729 1.1172 2.4902 2.4902 2.4902 4.1188 0 7.4707 3.3519 7.4707 7.4707 0 4.1189-3.3519 7.4707-7.4707 7.4707z" fill="#FFDA45"/><path d="M74.7137 49.6287c-3.6573 1.8129-7.7745 2.8322-12.1258 2.8322-14.2641 0-26.018-10.9603-27.2814-24.9023h-5.2577c-3.4979 0-6.8548.7089-10.0024 2.1101-2.555-1.3846-5.3756-2.1101-8.2377-2.1101H4.1819l4.2633 12.7915c-.425.7421-.7935 1.451-1.1106 2.1499H0v19.9219h7.3196c1.9457 4.4243 5.1797 8.241 9.2421 10.8707 2.208 1.4294 3.5262 3.8499 3.5262 6.4746v2.5766h14.9414v-4.9805h14.9414v4.9805h14.9414v-2.4903c0-4.167 1.4742-8.2211 4.1521-11.4152 4.5604-5.4387 6.4048-12.3101 5.6495-18.8096zm-49.6453-2.1482h-4.9805V42.5h4.9805v4.9805z" fill="#FFDA45"/></svg>