<svg width="85" height="85" fill="none" xmlns="http://www.w3.org/2000/svg"><g clip-path="url(#clip0)" fill="#FFDA45"><path d="M56.0971 59.5701l3.887-6.3073 7.0145-2.3923.7771-7.3673 5.2774-5.1954-2.5091-6.9737 2.5091-6.9738-5.2773-5.1955-.7771-7.3671-7.0145-2.3923-3.8869-6.3074-7.352.8877L42.5 0l-6.2454 3.986-7.3518-.8877-3.8869 6.3073-7.0145 2.3923-.7772 7.3671-5.2774 5.1955 2.5091 6.9738-2.5091 6.9738 5.2773 5.1953.7771 7.3673 7.0145 2.3923 3.8869 6.3072 7.352-.8875L42.5 62.6686l6.2453-3.9859 7.3518.8874zM21.0127 31.3343c0-11.8481 9.6392-21.4872 21.4873-21.4872 11.848 0 21.4872 9.6391 21.4872 21.4872 0 11.848-9.6392 21.4872-21.4872 21.4872-11.8481 0-21.4873-9.6392-21.4873-21.4872z"/><path d="M42.5 14.8307c-9.1002 0-16.5037 7.4034-16.5037 16.5036 0 9.1001 7.4035 16.5036 16.5037 16.5036 9.1001 0 16.5036-7.4035 16.5036-16.5036 0-9.1002-7.4035-16.5036-16.5036-16.5036zM35.0791 63.8444l-8.7457 1.0558-4.6208-7.4984-1.5708-.5356-6.7756 21.178 12.198-.6709 9.5434 7.6268 5.616-17.5532-5.6445-3.6025zM63.2876 57.402l-4.6209 7.4982-8.7456-1.0558-5.6445 3.6025 5.616 17.5532 9.5434-7.6268 12.198.6709-6.7756-21.178-1.5708.5358z"/></g><defs><clipPath id="clip0"><path fill="#fff" d="M0 0h85v85H0z"/></clipPath></defs></svg>